<?xml version="1.0" encoding="utf-8"?>
<!-- Generator: Adobe Illustrator 15.0.0, SVG Export Plug-In . SVG Version: 6.00 Build 0)  -->
<!DOCTYPE svg PUBLIC "-//W3C//DTD SVG 1.1//EN" "http://www.w3.org/Graphics/SVG/1.1/DTD/svg11.dtd">
<svg version="1.1" id="Layer_1" xmlns="http://www.w3.org/2000/svg" xmlns:xlink="http://www.w3.org/1999/xlink" x="0px" y="0px"
	 width="139.254px" height="37.023px" viewBox="0 0 139.254 37.023" enable-background="new 0 0 139.254 37.023"
	 xml:space="preserve">
<path fill="#1D391F" d="M138.217,24.094l-83.005-0.026c-2.415,0-4.333-1.918-4.333-4.332V4.372C50.879,1.957,48.921,0,46.507,0
	H4.373C1.958,0,0,1.957,0,4.372v17.425c0,2.413,1.958,4.372,4.373,4.372h133.845c0.573,0,1.037-0.464,1.037-1.037
	C139.255,24.559,138.79,24.094,138.217,24.094z"/>
<g>
	<polygon fill="#BACF1D" points="26.996,11.382 26.98,11.382 26.991,11.389 	"/>
	<path fill="#BACF1D" d="M30.736,17.844c-0.16,0.029-0.31,0.045-0.446,0.045c-0.351,0-0.657-0.104-0.92-0.314
		c-0.264-0.209-0.555-0.537-0.877-0.986c0.497-0.729,0.745-1.602,0.745-2.612c0-0.188,0.05-1.149-0.235-1.342h-1.778l0.012,0.267
		l0.906,0.183c0.092,0.021,0.162,0.05,0.208,0.089c0.045,0.038,0.076,0.104,0.091,0.196c0.029,0.187,0.044,0.427,0.044,0.724
		c0,0.726-0.161,1.373-0.482,1.942l-3.795-4.185c-0.479-0.644-0.719-1.283-0.719-1.923c0-0.384,0.095-0.691,0.282-0.923
		c0.188-0.231,0.541-0.348,0.846-0.348c1.302,0,1.614,1.439,1.614,1.439V8.738c0.011-0.031-0.681-0.73-1.614-0.73
		c-0.789,0-1.399,0.268-1.93,0.687c-0.532,0.419-0.797,0.976-0.797,1.672c0,0.38,0.074,0.751,0.223,1.11
		c0.148,0.359,0.488,0.853,1.02,1.476c-1.413,0.74-2.119,1.676-2.119,2.805c0,0.832,0.343,1.492,1.03,1.98
		c0.686,0.486,1.53,0.729,2.533,0.729c1.071,0,2.043-0.314,2.916-0.948c0.54,0.652,1.195,0.978,1.965,0.978
		c0.462,0,0.908-0.109,1.336-0.328L30.736,17.844z M24.922,17.698c-0.725,0-1.292-0.197-1.698-0.591
		c-0.406-0.396-0.609-0.93-0.609-1.601c0-0.855,0.345-1.569,1.038-2.141l3.184,3.645C26.256,17.471,25.618,17.698,24.922,17.698z"/>
</g>
<path fill="#FFFFFF" d="M11.291,22.309h-0.618c-0.43,0-0.837-0.108-1.222-0.322c-0.287-0.162-0.475-0.354-0.564-0.578
	c-0.117-0.296-0.175-0.905-0.175-1.826v-5.869L21.697,26.17h7.543l12.985-12.456v5.869c0,0.921-0.059,1.53-0.175,1.826
	c-0.09,0.224-0.278,0.416-0.564,0.578c-0.385,0.214-0.792,0.322-1.222,0.322h-0.619v0.497h7.763v-0.497h-0.645
	c-0.752,0-1.299-0.221-1.639-0.659c-0.215-0.286-0.322-0.977-0.322-2.067V7.817c0-0.921,0.058-1.536,0.175-1.84
	c0.089-0.215,0.273-0.401,0.55-0.563c0.394-0.216,0.806-0.322,1.236-0.322h0.645V4.596h-7.763v0.495h0.619
	c0.42,0,0.828,0.104,1.222,0.31c0.277,0.145,0.47,0.356,0.578,0.646c0.107,0.287,0.161,0.877,0.161,1.771v5.573
	c-0.18-0.172-0.792-0.737-1.84-1.705c-2.659-2.436-4.266-4.062-4.821-4.875c-0.241-0.358-0.362-0.673-0.362-0.939
	c0-0.207,0.094-0.389,0.282-0.545c0.188-0.155,0.506-0.234,0.953-0.234h0.417V4.596h-6.688v0.495
	c0.394,0.009,0.752,0.063,1.074,0.16c0.322,0.102,0.716,0.29,1.182,0.571c0.466,0.281,1.039,0.737,1.719,1.363
	c0.197,0.18,1.105,1.098,2.726,2.753l2.78,2.767L25.469,26.152L11.291,12.706l2.779-2.767c1.621-1.655,2.53-2.573,2.727-2.753
	c0.68-0.626,1.253-1.082,1.719-1.363c0.465-0.281,0.859-0.471,1.182-0.571c0.322-0.097,0.68-0.151,1.074-0.16V4.596h-6.688v0.495
	h0.417c0.447,0,0.765,0.079,0.953,0.234c0.188,0.156,0.282,0.338,0.282,0.545c0,0.268-0.121,0.581-0.362,0.939
	c-0.556,0.813-2.163,2.439-4.821,4.875c-1.048,0.968-1.661,1.533-1.84,1.705V7.817c0-0.896,0.054-1.484,0.161-1.771
	c0.107-0.288,0.3-0.501,0.578-0.646c0.394-0.206,0.801-0.31,1.222-0.31h0.618V4.596H3.529v0.495h0.645
	c0.43,0,0.842,0.106,1.236,0.322c0.277,0.162,0.46,0.35,0.55,0.563c0.117,0.304,0.174,0.919,0.174,1.84v11.765
	c0,1.092-0.107,1.781-0.322,2.067c-0.339,0.438-0.886,0.659-1.638,0.659H3.529v0.497h7.762V22.309z"/>
<path fill="#9E9E9E" d="M62.134,14.56h-3.456l-0.606,1.407c-0.149,0.348-0.224,0.606-0.224,0.776c0,0.136,0.064,0.256,0.194,0.36
	c0.129,0.102,0.409,0.17,0.839,0.198v0.244H56.07v-0.244c0.373-0.064,0.614-0.15,0.724-0.257c0.224-0.21,0.472-0.638,0.744-1.282
	l3.14-7.347h0.23l3.107,7.425c0.25,0.598,0.477,0.984,0.681,1.162c0.204,0.178,0.488,0.277,0.853,0.299v0.244h-3.521v-0.244
	c0.355-0.017,0.596-0.075,0.721-0.177c0.125-0.101,0.188-0.224,0.188-0.37c0-0.191-0.088-0.497-0.263-0.914L62.134,14.56z
	 M61.95,14.072l-1.514-3.608l-1.553,3.608H61.95z"/>
<path fill="#9E9E9E" d="M65.933,17.548v-0.243h0.335c0.377,0,0.645-0.12,0.803-0.361c0.097-0.146,0.145-0.471,0.145-0.976v-5.766
	c0-0.558-0.062-0.906-0.184-1.047c-0.171-0.193-0.426-0.29-0.764-0.29h-0.335V8.622h3.633c1.334,0,2.349,0.15,3.043,0.453
	c0.695,0.304,1.256,0.808,1.68,1.514c0.423,0.707,0.635,1.523,0.635,2.449c0,1.243-0.377,2.28-1.132,3.114
	c-0.847,0.931-2.138,1.396-3.871,1.396H65.933z M68.479,16.903c0.558,0.123,1.025,0.183,1.402,0.183
	c1.018,0,1.863-0.355,2.534-1.071c0.672-0.716,1.007-1.686,1.007-2.909c0-1.233-0.335-2.206-1.007-2.916
	c-0.671-0.711-1.534-1.066-2.587-1.066c-0.395,0-0.845,0.063-1.35,0.19L68.479,16.903L68.479,16.903z"/>
<path fill="#9E9E9E" d="M85.009,8.622v0.243c-0.315,0.057-0.556,0.158-0.718,0.303c-0.232,0.216-0.439,0.544-0.619,0.987
	l-3.113,7.597h-0.244l-3.344-7.695C76.8,9.662,76.68,9.421,76.609,9.333c-0.11-0.136-0.246-0.243-0.405-0.318
	c-0.16-0.077-0.376-0.126-0.647-0.148V8.622h3.646v0.243c-0.413,0.04-0.682,0.109-0.803,0.21c-0.123,0.101-0.186,0.23-0.186,0.39
	c0,0.22,0.102,0.562,0.303,1.025l2.271,5.234l2.105-5.168c0.207-0.51,0.311-0.862,0.311-1.061c0-0.127-0.064-0.25-0.191-0.365
	s-0.342-0.198-0.645-0.248c-0.021-0.003-0.061-0.01-0.112-0.019V8.622H85.009z"/>
<path fill="#9E9E9E" d="M90.104,8.418c1.16,0,2.164,0.438,3.012,1.318c0.85,0.88,1.273,1.979,1.273,3.295
	c0,1.356-0.428,2.483-1.283,3.378c-0.855,0.896-1.892,1.343-3.106,1.343c-1.229,0-2.261-0.438-3.097-1.311
	c-0.836-0.872-1.254-2.003-1.254-3.39c0-1.418,0.482-2.574,1.447-3.47C87.934,8.807,88.938,8.418,90.104,8.418z M89.979,8.897
	c-0.799,0-1.438,0.296-1.922,0.89c-0.601,0.737-0.902,1.816-0.902,3.238c0,1.456,0.313,2.578,0.936,3.364
	c0.479,0.596,1.11,0.895,1.896,0.895c0.838,0,1.529-0.326,2.076-0.979s0.82-1.687,0.82-3.095c0-1.526-0.301-2.666-0.902-3.417
	C91.497,9.197,90.831,8.897,89.979,8.897z"/>
<path fill="#9E9E9E" d="M103.025,8.418l0.205,3.033h-0.205c-0.272-0.907-0.66-1.563-1.166-1.961c-0.504-0.398-1.109-0.6-1.816-0.6
	c-0.592,0-1.128,0.149-1.605,0.451c-0.479,0.301-0.855,0.779-1.129,1.438c-0.274,0.658-0.412,1.477-0.412,2.455
	c0,0.809,0.129,1.508,0.388,2.101c0.259,0.594,0.649,1.047,1.168,1.363c0.521,0.315,1.114,0.473,1.78,0.473
	c0.58,0,1.092-0.123,1.535-0.371c0.442-0.248,0.93-0.739,1.461-1.478l0.203,0.131c-0.447,0.794-0.97,1.376-1.566,1.744
	c-0.598,0.369-1.305,0.554-2.127,0.554c-1.479,0-2.625-0.549-3.437-1.646c-0.604-0.814-0.907-1.776-0.907-2.883
	c0-0.893,0.199-1.71,0.599-2.455c0.399-0.746,0.948-1.324,1.649-1.734c0.699-0.41,1.465-0.615,2.293-0.615
	c0.646,0,1.281,0.156,1.91,0.474c0.184,0.098,0.315,0.146,0.395,0.146c0.119,0,0.221-0.042,0.309-0.124
	c0.114-0.12,0.195-0.284,0.244-0.494h0.232V8.418z"/>
<path fill="#9E9E9E" d="M110.068,14.56h-3.455l-0.606,1.407c-0.149,0.348-0.224,0.606-0.224,0.776c0,0.136,0.064,0.256,0.193,0.36
	c0.129,0.102,0.41,0.17,0.84,0.198v0.244h-2.812v-0.244c0.373-0.064,0.614-0.15,0.724-0.257c0.225-0.21,0.473-0.638,0.744-1.282
	l3.141-7.347h0.229l3.107,7.425c0.25,0.598,0.478,0.984,0.681,1.162c0.205,0.178,0.488,0.277,0.854,0.299v0.244h-3.521v-0.244
	c0.355-0.017,0.596-0.075,0.721-0.177c0.125-0.101,0.188-0.224,0.188-0.37c0-0.191-0.088-0.497-0.263-0.914L110.068,14.56z
	 M109.885,14.072l-1.514-3.608l-1.553,3.608H109.885z"/>
<path fill="#9E9E9E" d="M119.943,8.622l0.099,2.094h-0.25c-0.048-0.369-0.114-0.633-0.196-0.791
	c-0.137-0.255-0.318-0.441-0.543-0.563c-0.227-0.121-0.523-0.182-0.893-0.182h-1.258V16c0,0.55,0.061,0.893,0.179,1.028
	c0.167,0.185,0.423,0.274,0.771,0.274h0.31v0.244h-3.785v-0.244h0.315c0.377,0,0.646-0.113,0.804-0.343
	c0.097-0.139,0.146-0.46,0.146-0.961V9.181h-1.074c-0.416,0-0.713,0.03-0.887,0.093c-0.229,0.082-0.425,0.243-0.587,0.48
	c-0.163,0.236-0.259,0.557-0.29,0.961h-0.25l0.105-2.094H119.943z"/>
<path fill="#9E9E9E" d="M123.195,9.107v3.53h1.962c0.509,0,0.849-0.078,1.02-0.231c0.228-0.201,0.355-0.557,0.382-1.066h0.243v3.108
	h-0.243c-0.062-0.435-0.123-0.714-0.185-0.837c-0.079-0.153-0.208-0.273-0.388-0.362c-0.18-0.088-0.457-0.132-0.829-0.132h-1.962
	v2.943c0,0.394,0.018,0.635,0.053,0.721c0.035,0.085,0.096,0.152,0.184,0.203c0.088,0.052,0.256,0.076,0.5,0.076h1.514
	c0.506,0,0.871-0.034,1.101-0.105c0.228-0.07,0.448-0.208,0.659-0.415c0.271-0.271,0.55-0.683,0.835-1.229h0.265l-0.771,2.237
	h-6.879v-0.243h0.316c0.211,0,0.41-0.052,0.598-0.151c0.141-0.069,0.236-0.175,0.287-0.315c0.051-0.142,0.076-0.428,0.076-0.861
	v-5.802c0-0.564-0.058-0.914-0.172-1.045c-0.158-0.177-0.421-0.264-0.789-0.264h-0.316V8.622h6.879l0.099,1.954h-0.257
	c-0.092-0.469-0.193-0.793-0.307-0.968c-0.112-0.175-0.277-0.311-0.498-0.401c-0.176-0.064-0.484-0.1-0.928-0.1H123.195z"/>
<path fill="#9E9E9E" d="M134.793,8.418v3.087h-0.243c-0.079-0.593-0.221-1.063-0.425-1.415s-0.495-0.63-0.872-0.836
	s-0.769-0.31-1.172-0.31c-0.456,0-0.834,0.14-1.132,0.418c-0.299,0.278-0.448,0.595-0.448,0.951c0,0.271,0.095,0.521,0.283,0.744
	c0.272,0.328,0.919,0.768,1.942,1.314c0.832,0.447,1.402,0.791,1.707,1.031c0.305,0.238,0.541,0.521,0.705,0.846
	c0.164,0.324,0.246,0.665,0.246,1.021c0,0.676-0.262,1.259-0.787,1.749c-0.523,0.488-1.199,0.732-2.023,0.732
	c-0.26,0-0.502-0.021-0.731-0.06c-0.136-0.021-0.418-0.104-0.846-0.24c-0.429-0.137-0.699-0.207-0.813-0.207
	c-0.109,0-0.197,0.032-0.26,0.099c-0.063,0.065-0.111,0.201-0.142,0.408h-0.243V14.69h0.243c0.114,0.641,0.268,1.12,0.461,1.438
	c0.192,0.319,0.487,0.584,0.886,0.795c0.396,0.21,0.833,0.315,1.307,0.315c0.549,0,0.981-0.146,1.301-0.436
	c0.318-0.289,0.478-0.632,0.478-1.026c0-0.219-0.062-0.44-0.181-0.664c-0.12-0.224-0.309-0.433-0.563-0.626
	c-0.172-0.131-0.639-0.411-1.402-0.839c-0.764-0.429-1.307-0.77-1.629-1.024s-0.567-0.535-0.734-0.841
	c-0.167-0.309-0.25-0.646-0.25-1.015c0-0.642,0.245-1.193,0.736-1.656c0.492-0.462,1.117-0.693,1.877-0.693
	c0.474,0,0.976,0.116,1.507,0.349c0.245,0.109,0.419,0.166,0.521,0.166c0.113,0,0.207-0.034,0.279-0.104
	c0.072-0.068,0.13-0.206,0.174-0.411H134.793z"/>
</svg>
