<?xml version="1.0" encoding="utf-8"?>
<!-- Generator: Adobe Illustrator 15.0.0, SVG Export Plug-In . SVG Version: 6.00 Build 0)  -->
<!DOCTYPE svg PUBLIC "-//W3C//DTD SVG 1.1//EN" "http://www.w3.org/Graphics/SVG/1.1/DTD/svg11.dtd">
<svg version="1.1" id="Layer_1" xmlns="http://www.w3.org/2000/svg" xmlns:xlink="http://www.w3.org/1999/xlink" x="0px" y="0px"
	 width="139.254px" height="37.023px" viewBox="0 0 139.254 37.023" enable-background="new 0 0 139.254 37.023"
	 xml:space="preserve">
<path fill="#1D391F" d="M138.217,24.094l-83.005-0.025c-2.415,0-4.333-1.918-4.333-4.332V4.372C50.879,1.957,48.921,0,46.507,0
	H4.373C1.958,0,0,1.957,0,4.372v17.425c0,2.413,1.958,4.372,4.373,4.372h133.845c0.573,0,1.037-0.464,1.037-1.037
	C139.255,24.559,138.79,24.094,138.217,24.094z"/>
<g>
	<polygon fill="#CDCCCC" points="26.996,11.382 26.98,11.382 26.991,11.389 	"/>
	<path fill="#CDCCCC" d="M30.736,17.844c-0.16,0.029-0.31,0.046-0.446,0.046c-0.351,0-0.657-0.104-0.92-0.314
		c-0.264-0.209-0.555-0.537-0.877-0.986c0.497-0.729,0.745-1.602,0.745-2.611c0-0.188,0.05-1.149-0.235-1.343h-1.778l0.012,0.268
		l0.906,0.183c0.092,0.021,0.162,0.05,0.208,0.089c0.045,0.038,0.076,0.104,0.091,0.196c0.029,0.188,0.044,0.427,0.044,0.724
		c0,0.727-0.161,1.373-0.482,1.942l-3.795-4.185c-0.479-0.645-0.719-1.283-0.719-1.924c0-0.384,0.095-0.69,0.282-0.923
		c0.188-0.23,0.541-0.348,0.846-0.348c1.302,0,1.614,1.439,1.614,1.439V8.738c0.011-0.031-0.681-0.73-1.614-0.73
		c-0.789,0-1.399,0.269-1.93,0.688c-0.532,0.419-0.797,0.976-0.797,1.672c0,0.38,0.074,0.751,0.223,1.11
		c0.148,0.358,0.488,0.853,1.02,1.476c-1.413,0.74-2.119,1.676-2.119,2.805c0,0.832,0.343,1.492,1.03,1.98
		c0.686,0.486,1.53,0.729,2.533,0.729c1.071,0,2.043-0.313,2.916-0.947c0.54,0.651,1.195,0.978,1.965,0.978
		c0.462,0,0.908-0.108,1.336-0.328L30.736,17.844z M24.922,17.698c-0.725,0-1.292-0.197-1.698-0.591
		c-0.406-0.396-0.609-0.931-0.609-1.602c0-0.854,0.345-1.568,1.038-2.141l3.184,3.645C26.256,17.471,25.618,17.698,24.922,17.698z"
		/>
</g>
<path fill="#FFFFFF" d="M11.291,22.309h-0.618c-0.43,0-0.837-0.108-1.222-0.322c-0.287-0.162-0.475-0.354-0.564-0.578
	c-0.117-0.296-0.175-0.905-0.175-1.826v-5.869L21.697,26.17h7.543l12.985-12.456v5.869c0,0.921-0.059,1.53-0.175,1.826
	c-0.09,0.224-0.278,0.416-0.564,0.578c-0.385,0.214-0.792,0.322-1.222,0.322h-0.619v0.497h7.763v-0.497h-0.645
	c-0.752,0-1.299-0.222-1.639-0.659c-0.215-0.286-0.322-0.978-0.322-2.067V7.817c0-0.921,0.058-1.536,0.175-1.84
	c0.089-0.215,0.273-0.401,0.55-0.563c0.394-0.216,0.806-0.322,1.236-0.322h0.645V4.596h-7.763v0.494h0.619
	c0.42,0,0.828,0.104,1.222,0.311c0.277,0.145,0.47,0.355,0.578,0.646c0.107,0.287,0.161,0.877,0.161,1.771v5.573
	c-0.18-0.173-0.792-0.737-1.84-1.705c-2.659-2.437-4.266-4.063-4.821-4.875c-0.241-0.358-0.362-0.673-0.362-0.939
	c0-0.207,0.094-0.389,0.282-0.545c0.188-0.155,0.506-0.234,0.953-0.234h0.417V4.596h-6.688v0.494c0.394,0.01,0.752,0.063,1.074,0.16
	c0.322,0.103,0.716,0.29,1.182,0.571c0.466,0.281,1.039,0.737,1.719,1.363c0.197,0.18,1.105,1.098,2.726,2.753l2.78,2.767
	L25.469,26.152L11.291,12.706l2.779-2.767c1.621-1.655,2.53-2.573,2.727-2.753c0.68-0.626,1.253-1.082,1.719-1.363
	c0.465-0.281,0.859-0.471,1.182-0.571c0.322-0.097,0.68-0.15,1.074-0.16V4.596h-6.688v0.494h0.417c0.447,0,0.765,0.079,0.953,0.234
	c0.188,0.156,0.282,0.338,0.282,0.545c0,0.269-0.121,0.581-0.362,0.939c-0.556,0.813-2.163,2.438-4.821,4.875
	c-1.048,0.968-1.661,1.532-1.84,1.705V7.817c0-0.896,0.054-1.484,0.161-1.771c0.107-0.288,0.3-0.501,0.578-0.646
	c0.394-0.206,0.801-0.311,1.222-0.311h0.618V4.596H3.529v0.494h0.645c0.43,0,0.842,0.106,1.236,0.322
	c0.277,0.162,0.46,0.351,0.55,0.563c0.117,0.304,0.174,0.919,0.174,1.84v11.765c0,1.092-0.107,1.781-0.322,2.067
	c-0.339,0.438-0.886,0.659-1.638,0.659H3.529v0.497h7.762V22.309z"/>
<path fill="#9E9E9E" d="M62.134,14.56h-3.456l-0.606,1.406c-0.149,0.349-0.224,0.606-0.224,0.776c0,0.136,0.064,0.256,0.194,0.36
	c0.129,0.102,0.409,0.17,0.839,0.197v0.244H56.07v-0.244c0.373-0.063,0.614-0.149,0.724-0.257c0.224-0.21,0.472-0.638,0.744-1.281
	l3.14-7.348h0.23l3.107,7.425c0.25,0.599,0.477,0.984,0.681,1.162c0.204,0.179,0.488,0.277,0.853,0.299v0.244h-3.521v-0.244
	c0.355-0.017,0.596-0.074,0.721-0.177c0.125-0.101,0.188-0.224,0.188-0.37c0-0.19-0.088-0.497-0.263-0.914L62.134,14.56z
	 M61.95,14.072l-1.514-3.608l-1.553,3.608H61.95z"/>
<path fill="#9E9E9E" d="M65.933,17.548v-0.242h0.335c0.377,0,0.645-0.12,0.803-0.361c0.097-0.146,0.145-0.471,0.145-0.977v-5.766
	c0-0.558-0.062-0.906-0.184-1.047c-0.171-0.193-0.426-0.29-0.764-0.29h-0.335V8.622h3.633c1.334,0,2.349,0.15,3.043,0.453
	c0.695,0.304,1.256,0.808,1.68,1.514c0.423,0.707,0.635,1.523,0.635,2.449c0,1.243-0.377,2.28-1.132,3.114
	c-0.847,0.931-2.138,1.396-3.871,1.396H65.933z M68.479,16.903c0.558,0.123,1.025,0.183,1.402,0.183c1.018,0,1.863-0.354,2.534-1.07
	c0.672-0.717,1.007-1.687,1.007-2.909c0-1.233-0.335-2.206-1.007-2.916c-0.671-0.711-1.534-1.066-2.587-1.066
	c-0.395,0-0.845,0.063-1.35,0.19L68.479,16.903L68.479,16.903z"/>
<path fill="#9E9E9E" d="M85.009,8.622v0.243c-0.315,0.057-0.556,0.158-0.718,0.303c-0.232,0.216-0.439,0.544-0.619,0.987
	l-3.113,7.597h-0.244l-3.344-7.694C76.8,9.662,76.68,9.421,76.609,9.333c-0.11-0.136-0.246-0.243-0.405-0.317
	c-0.16-0.077-0.376-0.126-0.647-0.148V8.622h3.646v0.243c-0.413,0.04-0.682,0.109-0.803,0.21c-0.123,0.101-0.187,0.23-0.187,0.39
	c0,0.221,0.103,0.563,0.304,1.025l2.271,5.234l2.104-5.168c0.207-0.511,0.312-0.862,0.312-1.062c0-0.127-0.063-0.25-0.19-0.365
	c-0.127-0.114-0.343-0.197-0.646-0.248c-0.021-0.003-0.062-0.01-0.112-0.019V8.622H85.009z"/>
<path fill="#9E9E9E" d="M90.104,8.418c1.16,0,2.164,0.438,3.013,1.318c0.85,0.88,1.272,1.979,1.272,3.295
	c0,1.356-0.428,2.483-1.283,3.378c-0.854,0.896-1.892,1.343-3.105,1.343c-1.229,0-2.262-0.438-3.098-1.311
	c-0.836-0.872-1.254-2.003-1.254-3.391c0-1.418,0.482-2.573,1.447-3.47C87.934,8.807,88.938,8.418,90.104,8.418z M89.979,8.897
	c-0.799,0-1.438,0.296-1.922,0.89c-0.601,0.737-0.902,1.816-0.902,3.238c0,1.456,0.313,2.578,0.937,3.364
	c0.479,0.596,1.11,0.895,1.896,0.895c0.839,0,1.529-0.326,2.076-0.979c0.547-0.653,0.82-1.688,0.82-3.096
	c0-1.525-0.301-2.666-0.902-3.417C91.497,9.197,90.831,8.897,89.979,8.897z"/>
<path fill="#9E9E9E" d="M103.025,8.418l0.205,3.033h-0.205c-0.272-0.907-0.66-1.563-1.166-1.961c-0.504-0.398-1.109-0.6-1.816-0.6
	c-0.592,0-1.128,0.148-1.605,0.45c-0.479,0.302-0.854,0.779-1.129,1.438c-0.273,0.658-0.412,1.477-0.412,2.455
	c0,0.809,0.129,1.508,0.389,2.101c0.259,0.595,0.648,1.047,1.168,1.363c0.521,0.315,1.113,0.473,1.779,0.473
	c0.58,0,1.093-0.123,1.535-0.371s0.93-0.738,1.461-1.478l0.203,0.131c-0.447,0.794-0.97,1.376-1.565,1.744
	c-0.599,0.369-1.306,0.554-2.128,0.554c-1.479,0-2.625-0.549-3.436-1.646c-0.604-0.814-0.908-1.776-0.908-2.883
	c0-0.894,0.199-1.71,0.6-2.455c0.398-0.746,0.947-1.324,1.648-1.734c0.699-0.41,1.465-0.615,2.293-0.615
	c0.646,0,1.281,0.156,1.91,0.475c0.184,0.098,0.315,0.146,0.396,0.146c0.118,0,0.221-0.042,0.309-0.124
	c0.114-0.12,0.195-0.284,0.244-0.494h0.231V8.418L103.025,8.418z"/>
<path fill="#9E9E9E" d="M110.068,14.56h-3.455l-0.606,1.406c-0.149,0.349-0.224,0.606-0.224,0.776c0,0.136,0.064,0.256,0.193,0.36
	c0.129,0.102,0.41,0.17,0.84,0.197v0.244h-2.813v-0.244c0.373-0.063,0.614-0.149,0.725-0.257c0.225-0.21,0.473-0.638,0.744-1.281
	l3.141-7.348h0.229l3.107,7.425c0.25,0.599,0.478,0.984,0.681,1.162c0.205,0.179,0.488,0.277,0.854,0.299v0.244h-3.521v-0.244
	c0.355-0.017,0.596-0.074,0.721-0.177c0.125-0.101,0.188-0.224,0.188-0.37c0-0.19-0.088-0.497-0.263-0.914L110.068,14.56z
	 M109.885,14.072l-1.514-3.608l-1.553,3.608H109.885z"/>
<path fill="#9E9E9E" d="M119.943,8.622l0.099,2.094h-0.25c-0.048-0.368-0.114-0.633-0.196-0.791
	c-0.137-0.255-0.318-0.44-0.543-0.563c-0.227-0.121-0.523-0.182-0.893-0.182h-1.258V16c0,0.55,0.061,0.894,0.179,1.028
	c0.167,0.185,0.423,0.273,0.771,0.273h0.311v0.244h-3.785v-0.244h0.314c0.377,0,0.646-0.112,0.805-0.343
	c0.097-0.139,0.146-0.46,0.146-0.961V9.181h-1.074c-0.416,0-0.713,0.029-0.887,0.093c-0.229,0.082-0.426,0.243-0.588,0.479
	s-0.259,0.558-0.289,0.961h-0.25l0.104-2.094L119.943,8.622L119.943,8.622z"/>
<path fill="#9E9E9E" d="M123.195,9.107v3.53h1.962c0.509,0,0.849-0.078,1.02-0.231c0.228-0.201,0.355-0.557,0.382-1.066h0.243v3.108
	h-0.243c-0.062-0.435-0.123-0.714-0.185-0.837c-0.079-0.153-0.208-0.273-0.388-0.362c-0.18-0.088-0.457-0.132-0.829-0.132h-1.962
	v2.943c0,0.394,0.018,0.635,0.053,0.721c0.035,0.085,0.096,0.152,0.184,0.203c0.088,0.052,0.256,0.076,0.5,0.076h1.514
	c0.507,0,0.871-0.034,1.102-0.105c0.229-0.07,0.448-0.208,0.659-0.415c0.271-0.271,0.55-0.683,0.835-1.229h0.266l-0.771,2.236
	h-6.879v-0.242h0.316c0.211,0,0.409-0.053,0.598-0.151c0.141-0.069,0.236-0.175,0.287-0.315c0.051-0.142,0.076-0.428,0.076-0.86
	v-5.803c0-0.563-0.059-0.913-0.172-1.045c-0.158-0.177-0.422-0.264-0.789-0.264h-0.316V8.622h6.879l0.099,1.954h-0.257
	c-0.092-0.469-0.193-0.793-0.307-0.968c-0.112-0.175-0.277-0.312-0.498-0.401c-0.176-0.063-0.484-0.1-0.928-0.1H123.195z"/>
<path fill="#9E9E9E" d="M134.793,8.418v3.087h-0.243c-0.079-0.593-0.221-1.063-0.425-1.415c-0.204-0.352-0.495-0.63-0.872-0.836
	s-0.769-0.31-1.172-0.31c-0.456,0-0.834,0.14-1.132,0.418c-0.299,0.278-0.448,0.595-0.448,0.951c0,0.271,0.095,0.521,0.283,0.744
	c0.272,0.327,0.919,0.768,1.942,1.313c0.832,0.447,1.401,0.791,1.707,1.031c0.305,0.238,0.541,0.521,0.705,0.846
	c0.164,0.324,0.245,0.665,0.245,1.021c0,0.676-0.262,1.259-0.786,1.749c-0.523,0.487-1.199,0.731-2.023,0.731
	c-0.26,0-0.502-0.021-0.73-0.06c-0.137-0.021-0.419-0.104-0.847-0.24c-0.429-0.137-0.699-0.207-0.813-0.207
	c-0.108,0-0.197,0.032-0.26,0.099c-0.063,0.065-0.111,0.201-0.142,0.408h-0.243v-3.06h0.243c0.114,0.641,0.268,1.12,0.461,1.438
	c0.192,0.319,0.487,0.584,0.886,0.795c0.396,0.21,0.833,0.315,1.307,0.315c0.549,0,0.981-0.146,1.301-0.437
	c0.318-0.288,0.479-0.632,0.479-1.025c0-0.219-0.063-0.44-0.181-0.664c-0.12-0.224-0.31-0.433-0.563-0.626
	c-0.172-0.131-0.639-0.411-1.402-0.839c-0.764-0.43-1.307-0.771-1.629-1.024c-0.321-0.254-0.566-0.535-0.733-0.841
	c-0.167-0.309-0.25-0.646-0.25-1.015c0-0.643,0.245-1.193,0.735-1.656c0.492-0.462,1.117-0.693,1.877-0.693
	c0.475,0,0.977,0.116,1.508,0.35c0.244,0.108,0.419,0.166,0.521,0.166c0.112,0,0.207-0.034,0.278-0.104
	c0.072-0.068,0.13-0.206,0.174-0.411H134.793z"/>
<g>
	<path fill="#FFFFFF" d="M21.642,30.746c0,0.217-0.152,0.39-0.404,0.39c-0.23,0-0.383-0.173-0.383-0.39s0.159-0.396,0.396-0.396
		C21.482,30.349,21.642,30.522,21.642,30.746z M20.934,35.221v-3.493h0.635v3.493H20.934z"/>
	<path fill="#FFFFFF" d="M24.426,32.673c0-0.366-0.008-0.654-0.029-0.943h0.563l0.036,0.577h0.015
		c0.173-0.324,0.578-0.649,1.154-0.649c0.484,0,1.234,0.289,1.234,1.486v2.079h-0.635v-2.016c0-0.563-0.209-1.032-0.809-1.032
		c-0.412,0-0.735,0.298-0.852,0.649c-0.029,0.08-0.043,0.188-0.043,0.296v2.103h-0.635L24.426,32.673L24.426,32.673z"/>
	<path fill="#FFFFFF" d="M30.968,30.891v0.837h0.908v0.481h-0.908v1.884c0,0.436,0.123,0.681,0.476,0.681
		c0.173,0,0.274-0.017,0.368-0.044l0.029,0.482c-0.123,0.043-0.317,0.086-0.563,0.086c-0.296,0-0.534-0.101-0.686-0.267
		c-0.174-0.195-0.245-0.505-0.245-0.917V32.21h-0.542v-0.481h0.542v-0.649L30.968,30.891z"/>
	<path fill="#FFFFFF" d="M34.702,33.59c0.016,0.858,0.557,1.212,1.198,1.212c0.455,0,0.736-0.077,0.967-0.18l0.115,0.454
		c-0.224,0.102-0.613,0.224-1.169,0.224c-1.076,0-1.718-0.714-1.718-1.768s0.621-1.877,1.638-1.877c1.147,0,1.443,0.996,1.443,1.639
		c0,0.13-0.008,0.226-0.021,0.296H34.702z M36.565,33.135c0.007-0.396-0.166-1.022-0.88-1.022c-0.65,0-0.924,0.584-0.976,1.022
		H36.565z"/>
	<path fill="#FFFFFF" d="M39.767,30.097h0.635v5.124h-0.635V30.097z"/>
	<path fill="#FFFFFF" d="M47.625,33.59c0.016,0.858,0.557,1.212,1.198,1.212c0.455,0,0.736-0.077,0.967-0.18l0.115,0.454
		c-0.224,0.102-0.613,0.224-1.169,0.224c-1.076,0-1.718-0.714-1.718-1.768s0.621-1.877,1.638-1.877c1.147,0,1.443,0.996,1.443,1.639
		c0,0.13-0.007,0.226-0.021,0.296H47.625z M49.487,33.135c0.007-0.396-0.166-1.022-0.88-1.022c-0.65,0-0.924,0.584-0.975,1.022
		H49.487z"/>
	<path fill="#FFFFFF" d="M55.18,35.098c-0.166,0.078-0.534,0.2-1.003,0.2c-1.055,0-1.739-0.714-1.739-1.78
		c0-1.075,0.736-1.862,1.876-1.862c0.375,0,0.707,0.094,0.88,0.188l-0.144,0.483c-0.152-0.079-0.391-0.166-0.736-0.166
		c-0.801,0-1.234,0.6-1.234,1.321c0,0.809,0.521,1.307,1.212,1.307c0.361,0,0.6-0.087,0.78-0.166L55.18,35.098z"/>
	<path fill="#FFFFFF" d="M58.582,30.891v0.837h0.909v0.481h-0.909v1.884c0,0.436,0.123,0.681,0.477,0.681
		c0.173,0,0.273-0.017,0.368-0.044l0.028,0.482c-0.123,0.043-0.316,0.086-0.563,0.086c-0.296,0-0.534-0.101-0.687-0.267
		c-0.173-0.195-0.245-0.505-0.245-0.917V32.21h-0.542v-0.481h0.542v-0.649L58.582,30.891z"/>
	<path fill="#FFFFFF" d="M64.931,34.26c0,0.368,0.007,0.688,0.028,0.962h-0.563l-0.036-0.57h-0.015
		c-0.158,0.281-0.534,0.647-1.154,0.647c-0.548,0-1.205-0.311-1.205-1.528v-2.042h0.635v1.927c0,0.664,0.209,1.119,0.78,1.119
		c0.426,0,0.722-0.296,0.837-0.585c0.036-0.087,0.059-0.202,0.059-0.324v-2.137h0.635L64.931,34.26L64.931,34.26z"/>
	<path fill="#FFFFFF" d="M70.238,34.384c0,0.305,0.016,0.601,0.051,0.839H69.72l-0.051-0.44h-0.021
		c-0.195,0.274-0.57,0.52-1.068,0.52c-0.708,0-1.067-0.497-1.067-1.003c0-0.845,0.751-1.307,2.101-1.299v-0.072
		c0-0.279-0.08-0.809-0.794-0.802c-0.332,0-0.671,0.095-0.917,0.26l-0.145-0.426c0.289-0.18,0.714-0.303,1.154-0.303
		c1.068,0,1.328,0.729,1.328,1.422L70.238,34.384L70.238,34.384z M69.625,33.438c-0.692-0.017-1.479,0.105-1.479,0.786
		c0,0.419,0.274,0.604,0.592,0.604c0.462,0,0.758-0.289,0.859-0.585c0.021-0.072,0.028-0.145,0.028-0.202V33.438L69.625,33.438z"/>
	<path fill="#FFFFFF" d="M73.064,30.097h0.635v5.124h-0.635V30.097z"/>
	<path fill="#FFFFFF" d="M79.902,32.868c0-0.448-0.016-0.809-0.029-1.141h0.563l0.037,0.599h0.014
		c0.254-0.426,0.672-0.671,1.242-0.671c0.853,0,1.486,0.715,1.486,1.769c0,1.258-0.771,1.876-1.595,1.876
		c-0.462,0-0.866-0.2-1.075-0.548h-0.016v1.897h-0.627V32.868z M80.529,33.799c0,0.096,0.008,0.183,0.029,0.262
		c0.116,0.438,0.498,0.741,0.953,0.741c0.672,0,1.061-0.548,1.061-1.35c0-0.692-0.367-1.292-1.038-1.292
		c-0.433,0-0.845,0.304-0.96,0.78c-0.021,0.079-0.043,0.173-0.043,0.252L80.529,33.799L80.529,33.799z"/>
	<path fill="#FFFFFF" d="M85.809,32.817c0-0.411-0.006-0.767-0.027-1.09h0.556l0.029,0.69h0.021c0.16-0.469,0.549-0.765,0.975-0.765
		c0.064,0,0.115,0.007,0.174,0.015v0.601c-0.064-0.017-0.131-0.017-0.217-0.017c-0.447,0-0.766,0.332-0.854,0.811
		c-0.014,0.087-0.021,0.193-0.021,0.296v1.861h-0.635V32.817L85.809,32.817z"/>
	<path fill="#FFFFFF" d="M93.061,33.445c0,1.292-0.901,1.854-1.738,1.854c-0.938,0-1.676-0.69-1.676-1.797
		c0-1.162,0.772-1.848,1.732-1.848C92.383,31.655,93.061,32.384,93.061,33.445z M90.297,33.481c0,0.765,0.432,1.343,1.053,1.343
		c0.606,0,1.063-0.57,1.063-1.357c0-0.592-0.296-1.335-1.046-1.335C90.62,32.132,90.297,32.824,90.297,33.481z"/>
	<path fill="#FFFFFF" d="M95.662,32.868c0-0.448-0.016-0.809-0.029-1.141h0.563l0.037,0.599h0.014
		c0.253-0.426,0.671-0.671,1.242-0.671c0.852,0,1.486,0.715,1.486,1.769c0,1.258-0.771,1.876-1.595,1.876
		c-0.463,0-0.866-0.2-1.075-0.548H96.29v1.897h-0.628V32.868z M96.29,33.799c0,0.096,0.007,0.183,0.028,0.262
		c0.117,0.438,0.498,0.741,0.953,0.741c0.672,0,1.062-0.548,1.062-1.35c0-0.692-0.368-1.292-1.039-1.292
		c-0.433,0-0.845,0.304-0.96,0.78c-0.021,0.079-0.043,0.173-0.043,0.252L96.29,33.799L96.29,33.799z"/>
	<path fill="#FFFFFF" d="M101.922,33.59c0.016,0.858,0.557,1.212,1.198,1.212c0.455,0,0.735-0.077,0.968-0.18l0.114,0.454
		c-0.224,0.102-0.612,0.224-1.169,0.224c-1.076,0-1.719-0.714-1.719-1.768s0.621-1.877,1.639-1.877c1.146,0,1.443,0.996,1.443,1.639
		c0,0.13-0.008,0.226-0.021,0.296H101.922z M103.784,33.135c0.007-0.396-0.166-1.022-0.88-1.022c-0.65,0-0.924,0.584-0.975,1.022
		H103.784z"/>
	<path fill="#FFFFFF" d="M106.986,32.817c0-0.411-0.008-0.767-0.029-1.09h0.557l0.028,0.69h0.022
		c0.158-0.469,0.547-0.765,0.974-0.765c0.065,0,0.114,0.007,0.173,0.015v0.601c-0.064-0.017-0.13-0.017-0.217-0.017
		c-0.447,0-0.766,0.332-0.852,0.811c-0.015,0.087-0.021,0.193-0.021,0.296v1.861h-0.635V32.817z"/>
	<path fill="#FFFFFF" d="M112.086,30.891v0.837h0.909v0.481h-0.909v1.884c0,0.436,0.123,0.681,0.477,0.681
		c0.174,0,0.273-0.017,0.367-0.044l0.029,0.482c-0.123,0.043-0.316,0.086-0.563,0.086c-0.297,0-0.535-0.101-0.688-0.267
		c-0.173-0.195-0.245-0.505-0.245-0.917V32.21h-0.541v-0.481h0.541v-0.649L112.086,30.891z"/>
	<path fill="#FFFFFF" d="M115.807,31.728l0.758,2.063c0.088,0.23,0.174,0.505,0.232,0.714h0.014
		c0.065-0.209,0.139-0.476,0.226-0.729l0.692-2.05h0.672l-0.953,2.488c-0.455,1.198-0.766,1.806-1.198,2.188
		c-0.317,0.268-0.621,0.375-0.778,0.404l-0.16-0.527c0.16-0.05,0.369-0.151,0.557-0.311c0.173-0.139,0.383-0.384,0.533-0.707
		c0.029-0.064,0.052-0.115,0.052-0.151s-0.015-0.087-0.052-0.166l-1.284-3.219L115.807,31.728L115.807,31.728z"/>
	<path fill="#FFFFFF" d="M43.767,30.097h0.635v5.124h-0.635V30.097z"/>
</g>
</svg>
